<?xml version="1.0" encoding="utf-8"?>
<!-- Generator: Adobe Illustrator 18.0.0, SVG Export Plug-In . SVG Version: 6.00 Build 0)  -->
<!DOCTYPE svg PUBLIC "-//W3C//DTD SVG 1.1//EN" "http://www.w3.org/Graphics/SVG/1.1/DTD/svg11.dtd">
<svg version="1.1" id="Capa_1" xmlns="http://www.w3.org/2000/svg" xmlns:xlink="http://www.w3.org/1999/xlink" x="0px" y="0px"
	 viewBox="0 0 504.8 504.8" enable-background="new 0 0 504.8 504.8" xml:space="preserve">
<g>
	<linearGradient id="SVGID_1_" gradientUnits="userSpaceOnUse" x1="21.7738" y1="431.9901" x2="452.0406" y2="99.3881">
		<stop  offset="0" style="stop-color:#151735"/>
		<stop  offset="1" style="stop-color:#56304F"/>
	</linearGradient>
	<path fill="url(#SVGID_1_)" d="M503.6,434.4c0,37-30,67-67,67H72.1c-37,0-67-30-67-67V69.9c0-37,30-66.9,67-66.9h364.5
		c37,0,67,30,67,66.9V434.4z"/>
	<g>
		<path fill="#FFFFFF" d="M125,96.2h145.5c82.4,0,100.2,58.6,100.2,81.7c0,46.8-26.5,58.7-39.8,64.1c20.1,5.7,52.7,22.8,52.7,82.3
			c0,17-2.1,84-109.4,84H125V96.2z M205.6,218.1h44.3c32.8,0,36.1-21.5,36.1-31.8c0-9.5-6-30.4-35.5-30.4h-44.9V218.1z M205.6,353.7
			h50.8c42.2,0,44.7-29.7,44.7-40.2c0-9.7-3.6-39.7-44.9-39.7h-50.6V353.7z"/>
	</g>
</g>
</svg>
