<?xml version="1.0" encoding="utf-8"?>
<!-- Generator: Adobe Illustrator 18.0.0, SVG Export Plug-In . SVG Version: 6.00 Build 0)  -->
<!DOCTYPE svg PUBLIC "-//W3C//DTD SVG 1.1//EN" "http://www.w3.org/Graphics/SVG/1.1/DTD/svg11.dtd">
<svg version="1.1" id="Capa_1" xmlns="http://www.w3.org/2000/svg" xmlns:xlink="http://www.w3.org/1999/xlink" x="0px" y="0px"
	 viewBox="0 0 504.8 504.8" enable-background="new 0 0 504.8 504.8" xml:space="preserve">
<g>
	<polygon fill="#010101" points="69.7,454.5 29.3,1.6 473,1.6 432.6,454.4 250.9,504.8 	"/>
	<polygon fill="#010101" points="251.2,466.3 398,425.6 432.5,38.6 251.2,38.6 	"/>
	<g>
		<polygon fill="#FFFFFF" points="251.2,206.6 177.7,206.6 172.6,149.7 251.2,149.7 251.2,94.2 251,94.2 111.9,94.2 113.2,109.1 
			126.9,262.1 251.2,262.1 		"/>
		<polygon fill="#FFFFFF" points="251.2,350.8 250.9,350.9 189.1,334.2 185.1,289.9 155,289.9 129.3,289.9 137.1,377.1 250.9,408.7 
			251.2,408.6 		"/>
	</g>
	<g>
		<polygon fill="#FFFFFF" points="251,206.6 251,262.1 319.4,262.1 312.9,334.2 251,350.9 251,408.7 364.8,377.1 365.7,367.7 
			378.7,221.5 380.1,206.6 365.1,206.6 		"/>
		<polygon fill="#FFFFFF" points="251,94.2 251,128.6 251,149.6 251,149.7 385,149.7 385,149.7 385.1,149.7 386.3,137.2 
			388.8,109.1 390.1,94.2 		"/>
	</g>
</g>
</svg>
