<?xml version="1.0" encoding="utf-8"?>
<!-- Generator: Adobe Illustrator 18.0.0, SVG Export Plug-In . SVG Version: 6.00 Build 0)  -->
<!DOCTYPE svg PUBLIC "-//W3C//DTD SVG 1.1//EN" "http://www.w3.org/Graphics/SVG/1.1/DTD/svg11.dtd">
<svg version="1.1" id="Capa_1" xmlns="http://www.w3.org/2000/svg" xmlns:xlink="http://www.w3.org/1999/xlink" x="0px" y="0px"
	 viewBox="0 0 1190.6 841.9" enable-background="new 0 0 1190.6 841.9" xml:space="preserve">
<path d="M949.8,243.3L418,775.5c-6.6,6.6-14.7,10.3-23.1,12.6v0.9l-259.2,48.3l48.7-258.8h0.9c2.3-8.3,6-16.5,12.6-23L729.7,23.2
	c20.3-20.3,53.2-20.3,73.4,0L949.8,170C970.1,190.2,970.1,223,949.8,243.3L949.8,243.3z M268.3,759.7c-15.7-20.5-34-38.9-54.5-54.5
	l-14,68.5L268.3,759.7L268.3,759.7z M239.5,578.5l-20.1,99.2c29.7,20.9,55.6,46.7,76.4,76.4L395,734l0.1-0.4
	c-28.9-70.3-84.9-126.3-155.2-155.2L239.5,578.5L239.5,578.5z M784.7,77.9c-10.1-10.1-26.5-10.1-36.6,0L264.8,561.1
	c17.2,8.1,33.2,18,48.4,29L805.1,98.2L784.7,77.9L784.7,77.9z M823.4,116.6L333.7,606.2c12,10.3,23.2,21.5,33.6,33.6L856.9,150
	L823.4,116.6L823.4,116.6z M894.8,187.9l-19.5-19.5L383.4,660.2c10.8,14.9,20.5,30.5,28.5,47.3l482.8-482.9
	C904.9,214.5,904.9,198.1,894.8,187.9L894.8,187.9z"/>
</svg>
