<?xml version="1.0" encoding="utf-8"?>
<!-- Generator: Adobe Illustrator 18.0.0, SVG Export Plug-In . SVG Version: 6.00 Build 0)  -->
<!DOCTYPE svg PUBLIC "-//W3C//DTD SVG 1.1//EN" "http://www.w3.org/Graphics/SVG/1.1/DTD/svg11.dtd">
<svg version="1.1" id="Capa_1" xmlns="http://www.w3.org/2000/svg" xmlns:xlink="http://www.w3.org/1999/xlink" x="0px" y="0px"
	 viewBox="0 0 1190.6 841.9" enable-background="new 0 0 1190.6 841.9" xml:space="preserve">
<g>
	<g>
		<g>
			<path d="M588.2,834.2c-230,0-417.1-187.1-417.1-417.1C171.1,187.1,358.2,0,588.2,0c230,0,417.1,187.1,417.1,417.1
				C1005.3,647.1,818.2,834.2,588.2,834.2z M588.2,101.1c-174.2,0-316,141.8-316,316c0,174.2,141.8,316,316,316s316-141.8,316-316
				C904.2,242.8,762.5,101.1,588.2,101.1z"/>
		</g>
		<g>
			<path d="M681.9,417.1c0,51.7-41.9,93.7-93.7,93.7c-51.7,0-93.7-42-93.7-93.7c0-51.7,41.9-93.7,93.7-93.7
				C640,323.4,681.9,365.4,681.9,417.1z"/>
		</g>
	</g>
</g>
</svg>
