<?xml version="1.0" encoding="utf-8"?>
<!-- Generator: Adobe Illustrator 18.0.0, SVG Export Plug-In . SVG Version: 6.00 Build 0)  -->
<!DOCTYPE svg PUBLIC "-//W3C//DTD SVG 1.1//EN" "http://www.w3.org/Graphics/SVG/1.1/DTD/svg11.dtd">
<svg version="1.1" id="Capa_1" xmlns="http://www.w3.org/2000/svg" xmlns:xlink="http://www.w3.org/1999/xlink" x="0px" y="0px"
	 viewBox="0 0 1190.6 841.9" enable-background="new 0 0 1190.6 841.9" xml:space="preserve">
<path d="M833.2,511.7c-50.1-25-30.8-5.9-92.3-31.5c-61.5-25.6-76-33.9-76-33.9l-0.5-58.7c0,0,23-17.6,30.2-73
	c14.4,4.2,19.2-16.9,20-30.4c0.8-13,8.5-53.6-9.1-50c3.6-27.1,6.4-51.6,5.1-64.6C706.3,124,675,76.4,595.8,73
	c-67.3,3.5-110.9,51.1-115.3,96.6c-1.3,13,1.3,37.5,4.9,64.6c-17.6-3.7-10,37-9.2,50c0.8,13.5,5.6,34.7,20,30.5
	c7.2,55.5,30.2,73.2,30.2,73.2l-0.6,59c0,0-14.6,8.9-76,34.5c-61.5,25.6-42.2,5.3-92.3,30.3C278.4,551.2,278.4,660,278.4,660h317.4
	h316.5C912.4,660,912.4,551.2,833.2,511.7z"/>
</svg>
