<?xml version="1.0" encoding="utf-8"?>
<!-- Generator: Adobe Illustrator 18.0.0, SVG Export Plug-In . SVG Version: 6.00 Build 0)  -->
<!DOCTYPE svg PUBLIC "-//W3C//DTD SVG 1.1//EN" "http://www.w3.org/Graphics/SVG/1.1/DTD/svg11.dtd">
<svg version="1.1" id="Capa_1" xmlns="http://www.w3.org/2000/svg" xmlns:xlink="http://www.w3.org/1999/xlink" x="0px" y="0px"
	 viewBox="0 0 1190.6 841.9" enable-background="new 0 0 1190.6 841.9" xml:space="preserve">
<path d="M750.2,478.9l-12.1,29.6c-3.4,7.4-8.8,13.5-16.8,16.8c-7.4,3.4-16.2,3.4-23.6,0l-18.9-8.1c-11.4,14.8-24.2,28.3-39.1,39.1
	l8.1,18.9c3.4,7.4,3.4,16.2,0,23.6s-8.8,13.5-16.8,16.8l-29.6,12.1c-4,1.3-7.4,2-11.4,2s-8.1-0.7-11.4-2
	c-7.4-3.4-13.5-8.8-16.8-16.8l-8.1-18.2c-18.2,2.7-37,2.7-55.9,0l-8.1,18.9c-6.7,15.5-24.2,22.9-39.7,16.8l-29.6-12.1
	c-7.4-3.4-13.5-8.8-16.8-16.8c-3.4-7.4-3.4-16.2,0-23.6l8.1-18.9c-14.8-11.4-28.3-24.2-39.1-39.1l-18.2,7.4
	c-15.5,6.7-33.7-0.7-39.7-16.8l-12.1-29.6c-6.7-15.5,0.7-33.7,16.8-39.7L338,431c-2.7-18.2-2.7-37,0-55.9l-18.9-8.1
	c-15.5-6.7-22.9-24.2-16.8-39.7l12.1-29.6c3.4-7.4,8.8-13.5,16.8-16.8c7.4-3.4,16.2-3.4,23.6,0l18.9,8.1
	c11.4-14.8,24.2-28.3,39.1-39.1l-8.1-18.9c-3.4-7.4-3.4-16.2,0-23.6c3.4-7.4,8.8-13.5,16.8-16.8l29.6-12.1c7.4-3.4,16.2-3.4,23.6,0
	c7.4,3.4,13.5,8.8,16.8,16.8l11.4,26.9c2.7,6.1-0.7,12.8-6.1,14.8c-6.1,2.7-12.8-0.7-14.8-6.1l-11.4-26.9c-0.7-2-2-3.4-4-4
	c-2-0.7-4-0.7-6.1,0l-29.6,12.1c-2,0.7-3.4,2-4,4c-0.7,2-0.7,4,0,6.1l11.4,26.9c2,5.4,0,10.8-4,14.1c-18.2,12.1-33.7,27.6-46.5,46.5
	c-3.4,4.7-8.8,6.1-14.1,4l-26.9-11.4c-4-1.3-8.1,0-10.1,4l-13.5,30.3c-1.3,4,0,8.1,4,10.1l26.9,11.4c5.4,2,8.1,7.4,6.7,12.8
	c-4,21.6-4,43.8,0,65.3c1.3,5.4-2,10.8-6.7,12.8l-26.9,11.4c-4,1.3-6.1,6.1-4,10.1l12.1,29.6c1.3,4,6.1,5.4,10.1,4l26.9-11.4
	c5.4-2,10.8,0,14.1,4c12.1,18.2,27.6,33.7,46.5,46.5c4.7,3.4,6.1,8.8,4,14.1l-11.4,26.9c-0.7,2-0.7,4,0,6.1c0.7,2,2,3.4,4,4
	l29.6,12.1c4,1.3,8.1,0,10.1-4l11.4-26.9c2-5.4,7.4-8.1,12.8-6.7c21.6,4,43.8,4,65.3,0c5.4-1.3,10.8,2,12.8,6.7l11.4,26.9
	c0.7,2,2,3.4,4,4c2,0.7,4,0.7,6.1,0l29.6-12.1c2-0.7,3.4-2,4-4c0.7-2,0.7-4,0-6.1l-11.4-26.9c-2-5.4,0-10.8,4-14.1
	c18.2-12.1,33.7-27.6,46.5-46.5c3.4-4.7,8.8-6.1,14.1-4l26.9,11.4c4,1.3,8.1,0,10.1-4l12.1-29.6c1.3-4,0-8.1-4-10.1l-26.9-11.4
	c-6.1-2.7-8.8-9.4-6.1-14.8c2.7-6.1,9.4-8.8,14.8-6.1l26.9,11.4C749.5,445.9,756.9,463.4,750.2,478.9z M428.9,404.1
	c0.7,53.2,43.8,96.3,97,96.3h0.7c53.2-0.7,96.3-44.5,96.3-97.7c0-6.1-5.4-11.4-11.4-11.4c-6.1,0-11.4,5.4-11.4,11.4
	c0,41.1-33,74.1-73.4,74.8h-0.7c-40.4,0-73.4-33-74.1-73.4c0-41.1,33-74.1,73.4-74.8c6.1,0,11.4-5.4,11.4-11.4s-5.4-11.4-11.4-11.4
	l0,0C472,307.1,428.9,350.9,428.9,404.1z M787.2,218.2c0,39.1-31.7,70.7-70.7,70.7s-70.7-31.7-70.7-70.7s31.7-70.7,70.7-70.7
	S787.2,179.2,787.2,218.2z M764.3,218.2c0-26.3-21.6-47.8-47.8-47.8s-47.8,21.6-47.8,47.8s21.6,47.8,47.8,47.8
	S764.3,244.5,764.3,218.2z M890.9,206.8v23.6c0,14.1-11.4,25.6-25.6,25.6h-12.1c-3.4,12.1-8.1,22.9-14.1,33.7l8.8,8.8
	c4.7,4.7,7.4,11.4,7.4,18.2c0,6.7-2.7,12.8-7.4,18.2l-16.2,15.5c-4.7,4.7-11.4,7.4-18.2,7.4s-13.5-2.7-18.2-7.4l-8.8-8.8
	c-10.8,6.1-22.2,10.8-33.7,14.1v12.1c0,14.1-11.4,25.6-25.6,25.6h-23.6c-14.1,0-25.6-11.4-25.6-25.6v-12.1
	c-12.1-3.4-22.9-8.1-33.7-14.1l-7.4,8.8c-4.7,4.7-11.4,7.4-18.2,7.4s-12.8-2.7-18.2-7.4l-16.2-16.2c-10.1-10.1-10.1-26.3,0-35.7
	l8.8-8.8c-6.1-10.8-10.8-22.2-14.1-33.7H567c-14.1,0-25.6-11.4-25.6-25.6v-23.6c0-14.1,11.4-25.6,25.6-25.6h12.1
	c3.4-12.1,8.1-22.9,14.1-33.7l-8.8-8.8c-10.1-10.1-10.1-26.3,0-35.7l16.2-16.2c4.7-4.7,11.4-7.4,18.2-7.4s12.8,2.7,18.2,7.4l8.8,8.8
	c10.8-6.1,22.2-10.8,33.7-14.1V69.4c0-14.1,11.4-25.6,25.6-25.6h23.6c14.1,0,25.6,11.4,25.6,25.6v11.4c12.1,3.4,22.9,8.1,33.7,14.1
	l8.8-8.8c4.7-4.7,11.4-7.4,18.2-7.4c6.7,0,12.8,2.7,18.2,7.4l16.2,16.2c4.7,4.7,7.4,11.4,7.4,18.2s-2.7,12.8-7.4,18.2l-8.8,8.8
	c6.1,10.8,10.8,22.2,14.1,33.7h12.1C880.2,181.2,890.9,192.6,890.9,206.8z M868,206.8c0-1.3-1.3-2.7-2.7-2.7h-20.9
	c-5.4,0-10.1-4-11.4-9.4c-3.4-15.5-8.8-29.6-17.5-43.1c-3.4-4.7-2.7-10.8,1.3-14.8l14.8-14.8c0.7-0.7,0.7-1.3,0.7-2
	c0-0.7,0-1.3-0.7-2l-16.2-16.2c-0.7-0.7-1.3-0.7-2-0.7c-0.7,0-1.3,0-2,0.7l-14.1,16.2c-4,4-10.1,4.7-14.8,1.3
	c-12.8-8.8-27.6-14.8-43.1-17.5c-5.4-1.3-9.4-6.1-9.4-11.4V68.7c0-1.3-1.3-2.7-2.7-2.7h-23.6c-1.3,0-2.7,1.3-2.7,2.7v21.6
	c0,5.4-4,10.1-9.4,11.4c-15.5,3.4-29.6,8.8-42.4,17.5c-4.7,3.4-10.8,2.7-14.8-1.3L619.5,103c-0.7-0.7-1.3-0.7-2-0.7
	c-0.7,0-1.3,0-2,0.7l-16.2,16.2c-0.7,0.7-0.7,2.7,0,3.4l14.8,14.8c4,4,4.7,10.1,1.3,14.8c-8.8,12.8-14.8,27.6-17.5,43.1
	c-1.3,5.4-6.1,9.4-11.4,9.4H565c-1.3,0-2.7,1.3-2.7,2.7V231c0,1.3,1.3,2.7,2.7,2.7h23.6c5.4,0,10.1,4,11.4,9.4
	c3.4,15.5,8.8,29.6,17.5,43.1c3.4,4.7,2.7,10.8-1.3,14.8l-14.8,14.8c-0.7,0.7-0.7,2.7,0,3.4l16.2,16.2c0.7,0.7,1.3,0.7,2,0.7
	c0.7,0,1.3,0,2-0.7l14.8-14.8c2-2,5.4-3.4,8.1-3.4c2,0,4.7,0.7,6.1,2c12.8,8.8,27.6,14.8,42.4,17.5c5.4,1.3,9.4,6.1,9.4,11.4v21.6
	c0,1.3,1.3,2.7,2.7,2.7h23.6c1.3,0,2.7-1.3,2.7-2.7v-21.6c0-5.4,4-10.1,9.4-11.4c15.5-3.4,29.6-8.8,43.1-17.5
	c4.7-3.4,10.8-2.7,14.8,1.3l14.8,14.8c0.7,0.7,1.3,0.7,2,0.7s1.3,0,2-0.7l16.2-16.2c0.7-0.7,0.7-1.3,0.7-2c0-0.7,0-1.3-0.7-2
	l-14.8-14.8c-4-4-4.7-10.1-1.3-14.8c8.8-12.8,14.8-27.6,17.5-43.1c1.3-5.4,6.1-9.4,11.4-9.4H868c1.3,0,2.7-1.3,2.7-2.7v-23.6H868z"
	/>
</svg>
