<?xml version="1.0" encoding="utf-8"?>
<!-- Generator: Adobe Illustrator 18.0.0, SVG Export Plug-In . SVG Version: 6.00 Build 0)  -->
<!DOCTYPE svg PUBLIC "-//W3C//DTD SVG 1.1//EN" "http://www.w3.org/Graphics/SVG/1.1/DTD/svg11.dtd">
<svg version="1.1" id="Capa_1" xmlns="http://www.w3.org/2000/svg" xmlns:xlink="http://www.w3.org/1999/xlink" x="0px" y="0px"
	 viewBox="152.4 232.4 200 40" enable-background="new 152.4 232.4 200 40" xml:space="preserve">
<g>
	<path d="M215.3,250.1l4.6,4.6l-1,6.5c0,0-0.4,2,1.6,1.1l5.8-3l5.7,2.9c0,0,2.1,1.1,1.8-0.9l-1.2-6.7l4.7-4.6c0,0,1.5-1.2-0.3-2
		l-6.9-1l-3-5.9c0,0-0.8-1.9-1.9,0c-1.1,1.9-2.8,5.9-2.8,5.9l-6.7,1.1C215.7,248.2,213.8,248.6,215.3,250.1z"/>
	<path d="M241.7,250.1l4.6,4.6l-1,6.5c0,0-0.4,2,1.6,1.1l5.8-3l5.7,2.9c0,0,2.1,1.1,1.8-0.9l-1.2-6.7l4.7-4.6c0,0,1.5-1.2-0.3-2
		l-6.9-1l-3-5.9c0,0-0.8-1.9-1.9,0c-1.1,1.9-2.8,5.9-2.8,5.9l-6.7,1.1C242.1,248.2,240.2,248.6,241.7,250.1z"/>
	<path d="M294.7,250.1l4.6,4.6l-1,6.5c0,0-0.4,2,1.6,1.1l5.8-3l5.7,2.9c0,0,2.1,1.1,1.8-0.9l-1.2-6.7l4.7-4.6c0,0,1.5-1.2-0.3-2
		l-6.9-1l-3-5.9c0,0-0.8-1.9-1.9,0s-2.8,5.9-2.8,5.9l-6.7,1.1C295.1,248.2,293.1,248.6,294.7,250.1z M298.4,249.2l4.6-0.7
		c0,0,1.2-2.7,2-4c0.8-1.3,1.3,0,1.3,0l2.1,4l4.7,0.7c1.2,0.6,0.2,1.4,0.2,1.4l-3.2,3.1l0.8,4.6c0.2,1.4-1.3,0.6-1.3,0.6l-3.9-2
		l-4,2.1c-1.4,0.6-1.1-0.8-1.1-0.8l0.7-4.5l-3.1-3.2C297.1,249.5,298.4,249.2,298.4,249.2z"/>
	<path d="M268.2,250.1l4.6,4.6l-1,6.5c0,0-0.4,2,1.6,1.1l5.8-3l5.7,2.9c0,0,2.1,1.1,1.8-0.9l-1.2-6.7l4.7-4.6c0,0,1.5-1.2-0.3-2
		l-6.9-1l-3-5.9c0,0-0.8-1.9-1.9,0c-1.1,1.9-2.8,5.9-2.8,5.9l-6.7,1.1C268.6,248.2,266.7,248.6,268.2,250.1z M271.9,249.2l4.6-0.7
		c0,0,1.2-2.7,2-4c0.8-1.3,1.3,0,1.3,0l2.1,4l4.7,0.7c1.2,0.6,0.2,1.4,0.2,1.4l-3.2,3.1l0.8,4.6c0.2,1.4-1.3,0.6-1.3,0.6l-3.9-2
		l-4,2.1c-1.4,0.6-1.1-0.8-1.1-0.8l0.7-4.5l-3.1-3.2C270.6,249.5,271.9,249.2,271.9,249.2z"/>
	<path d="M188.8,250.1l4.6,4.6l-1,6.5c0,0-0.4,2,1.6,1.1l5.8-3l5.7,2.9c0,0,2.1,1.1,1.8-0.9l-1.2-6.7l4.7-4.6c0,0,1.5-1.2-0.3-2
		l-6.9-1l-3-5.9c0,0-0.8-1.9-1.9,0c-1.1,1.9-2.8,5.9-2.8,5.9l-6.7,1.1C189.2,248.2,187.3,248.6,188.8,250.1z"/>
</g>
</svg>
