<?xml version="1.0" encoding="utf-8"?>
<!-- Generator: Adobe Illustrator 18.0.0, SVG Export Plug-In . SVG Version: 6.00 Build 0)  -->
<!DOCTYPE svg PUBLIC "-//W3C//DTD SVG 1.1//EN" "http://www.w3.org/Graphics/SVG/1.1/DTD/svg11.dtd">
<svg version="1.1" id="Capa_1" xmlns="http://www.w3.org/2000/svg" xmlns:xlink="http://www.w3.org/1999/xlink" x="0px" y="0px"
	 viewBox="152.4 232.4 200 40" enable-background="new 152.4 232.4 200 40" xml:space="preserve">
<g>
	<path d="M209,247.9l-6.9-1.1c0,0-1.8-4-2.9-6c-1.1-2-2,0-2,0l-3.1,6l-7,1c-1.8,0.8-0.3,2-0.3,2l4.8,4.7l-1.2,6.8
		c-0.2,2,1.9,0.9,1.9,0.9l5.8-3l5.9,3c2,0.9,1.7-1.1,1.7-1.1l-1-6.7l4.7-4.7C211,248.3,209,247.9,209,247.9z"/>
	<path d="M235.4,248l-6.9-1.1c0,0-1.8-4-2.9-6c-1.1-2-2,0-2,0l-3.1,6l-7,1c-1.8,0.8-0.3,2-0.3,2l4.8,4.7l-1.2,6.8
		c-0.2,2,1.9,0.9,1.9,0.9l5.8-3l5.9,3c2,0.9,1.7-1.1,1.7-1.1l-1-6.7l4.7-4.7C237.3,248.5,235.4,248,235.4,248z"/>
	<path d="M289.3,248l-6.9-1.1c0,0-1.8-4-2.9-6c-1.1-2-2,0-2,0l-3.1,6l-7,1c-1.8,0.8-0.3,2-0.3,2l4.8,4.7l-1.2,6.8
		c-0.2,2,1.9,0.9,1.9,0.9l5.8-3l5.9,3c2,0.9,1.7-1.1,1.7-1.1l-1-6.7l4.7-4.7C291.3,248.5,289.3,248,289.3,248z"/>
	<path d="M262.3,248l-6.9-1.1c0,0-1.8-4-2.9-6c-1.1-2-2,0-2,0l-3.1,6l-7,1c-1.8,0.8-0.3,2-0.3,2l4.8,4.7l-1.2,6.8
		c-0.2,2,1.9,0.9,1.9,0.9l5.8-3l5.9,3c2,0.9,1.7-1.1,1.7-1.1l-1-6.7l4.7-4.7C264.3,248.5,262.3,248,262.3,248z"/>
	<path d="M316.3,248l-6.9-1.1c0,0-1.8-4-2.9-6c-1.1-2-2,0-2,0l-3.1,6l-7,1c-1.8,0.8-0.3,2-0.3,2l4.8,4.7l-1.2,6.8
		c-0.2,2,1.9,0.9,1.9,0.9l5.8-3l5.9,3c2,0.9,1.7-1.1,1.7-1.1l-1-6.7l4.7-4.7C318.3,248.5,316.3,248,316.3,248z"/>
</g>
</svg>
